<svg id="regular" enable-background="new 0 0 24 24" height="512" viewBox="0 0 24 24" width="512" xmlns="http://www.w3.org/2000/svg"><path d="m13.25 20.25h-10.5c-1.105 0-2-.895-2-2v-15.5c0-1.105.895-2 2-2h10.5c1.105 0 2 .895 2 2v15.5c0 1.105-.895 2-2 2z" fill="#eceff1"/><path d="m12.25 10c0 2.35-1.9 4.25-4.25 4.25-1.18 0-2.24-.47-3.01-1.24l3.01-3.01v-4.25c2.35 0 4.25 1.9 4.25 4.25z" fill="#2196f3"/><path d="m8 5.75v4.25l-3.01 3.01c-.77-.77-1.24-1.83-1.24-3.01 0-2.35 1.9-4.25 4.25-4.25z" fill="#ffc107"/><path d="m17.5 23.25c-3.17 0-5.75-2.58-5.75-5.75s2.58-5.75 5.75-5.75 5.75 2.58 5.75 5.75-2.58 5.75-5.75 5.75z" fill="#2196f3"/><path d="m17.5 24c-3.584 0-6.5-2.916-6.5-6.5s2.916-6.5 6.5-6.5 6.5 2.916 6.5 6.5-2.916 6.5-6.5 6.5zm0-11.5c-2.757 0-5 2.243-5 5s2.243 5 5 5 5-2.243 5-5-2.243-5-5-5z"/><path d="m17.5 20c-.414 0-.75-.336-.75-.75v-.229c0-.941.489-1.839 1.34-2.463.26-.191.41-.485.41-.808 0-.552-.449-1-1-1s-1 .448-1 1c0 .414-.336.75-.75.75s-.75-.336-.75-.75c0-1.379 1.122-2.5 2.5-2.5s2.5 1.121 2.5 2.5c0 .794-.382 1.548-1.023 2.018-.271.198-.727.626-.727 1.253v.229c0 .414-.336.75-.75.75z"/><path d="m17.5 21.75c-.2 0-.39-.08-.53-.22-.14-.141-.22-.33-.22-.53s.08-.391.22-.53c.07-.07.15-.12.24-.16.28-.12.61-.05.82.16.14.14.22.33.22.53s-.08.39-.22.53-.33.22-.53.22z"/><path d="m8.25 21h-5.5c-1.517 0-2.75-1.233-2.75-2.75v-15.5c0-1.517 1.233-2.75 2.75-2.75h10.5c1.517 0 2.75 1.233 2.75 2.75v5.5c0 .414-.336.75-.75.75s-.75-.336-.75-.75v-5.5c0-.689-.561-1.25-1.25-1.25h-10.5c-.689 0-1.25.561-1.25 1.25v15.5c0 .689.561 1.25 1.25 1.25h5.5c.414 0 .75.336.75.75s-.336.75-.75.75z"/><path d="m8 15c-2.757 0-5-2.243-5-5s2.243-5 5-5 5 2.243 5 5c0 .225-.014.45-.052.662-.072.408-.463.682-.87.606-.408-.072-.68-.462-.607-.87.023-.127.029-.263.029-.398 0-1.93-1.57-3.5-3.5-3.5s-3.5 1.57-3.5 3.5 1.57 3.5 3.5 3.5c.437 0 .847-.073 1.218-.218.385-.15.821.039.971.426.15.386-.04.82-.426.971-.546.213-1.139.321-1.763.321z"/><path d="m4.99 13.76c-.192 0-.384-.073-.53-.22-.293-.293-.293-.768 0-1.061l2.79-2.79v-3.939c0-.414.336-.75.75-.75s.75.336.75.75v4.25c0 .199-.079.39-.22.53l-3.01 3.01c-.146.147-.338.22-.53.22z"/></svg>